FILE "<Filename>.iso" BINARY
  TRACK 01 MODEx/2xxx
FILE "2.dummy" WAVE
  TRACK 02 AUDIO
    INDEX 01 00:00:00
  TRACK 03 AUDIO
    INDEX 00 07:17:67
FILE "3.dummy" WAVE
    INDEX 01 00:00:00
  TRACK 04 AUDIO
    INDEX 00 06:36:38
FILE "4.dummy" WAVE
    INDEX 01 00:00:00
  TRACK 05 AUDIO
    INDEX 00 05:57:69
FILE "5.dummy" WAVE
    INDEX 01 00:00:00
